<svg width="1440" height="1000" viewBox="0 0 1440 1000" fill="none" xmlns="http://www.w3.org/2000/svg">
<g clip-path="url(#clip0_78_7391)">
<path d="M4.35258e-06 117C47.9325 117 95.3956 126.441 139.679 144.784C183.963 163.127 224.201 190.013 258.094 223.906C291.987 257.799 318.873 298.037 337.216 342.321C355.559 386.604 365 434.068 365 482L0 482L4.35258e-06 117Z" fill="#7D8AC5"/>
<path d="M27 529C27 491.074 42.066 454.701 68.8837 427.884C95.7014 401.066 132.074 386 170 386L170 529L27 529Z" fill="#ADB7E3"/>
<mask id="path-4-inside-1_78_7391" fill="white">
<path d="M186 686C167.221 686 148.626 682.301 131.276 675.115C113.927 667.928 98.1625 657.395 84.8837 644.116C71.6049 630.837 61.0716 615.073 53.8852 597.724C46.6988 580.374 43 561.779 43 543C43 524.221 46.6988 505.626 53.8852 488.276C61.0717 470.927 71.605 455.162 84.8838 441.884C98.1626 428.605 113.927 418.072 131.276 410.885C148.626 403.699 167.221 400 186 400L186 543L186 686Z"/>
</mask>
<path d="M186 686C167.221 686 148.626 682.301 131.276 675.115C113.927 667.928 98.1625 657.395 84.8837 644.116C71.6049 630.837 61.0716 615.073 53.8852 597.724C46.6988 580.374 43 561.779 43 543C43 524.221 46.6988 505.626 53.8852 488.276C61.0717 470.927 71.605 455.162 84.8838 441.884C98.1626 428.605 113.927 418.072 131.276 410.885C148.626 403.699 167.221 400 186 400L186 543L186 686Z" stroke="#5F9D9A" stroke-width="10" mask="url(#path-4-inside-1_78_7391)"/>
<mask id="path-5-inside-2_78_7391" fill="white">
<path d="M186 785C138.137 785 91.3487 770.807 51.552 744.216C11.7553 717.624 -19.2624 679.829 -37.5789 635.609C-55.8953 591.39 -60.6877 542.732 -51.35 495.788C-42.0124 448.845 -18.9641 405.724 14.8802 371.88C48.7245 338.036 91.8448 314.988 138.788 305.65C185.732 296.312 234.39 301.105 278.609 319.421C322.829 337.738 360.624 368.755 387.216 408.552C413.807 448.349 428 495.137 428 543L186 543L186 785Z"/>
</mask>
<path d="M186 785C138.137 785 91.3487 770.807 51.552 744.216C11.7553 717.624 -19.2624 679.829 -37.5789 635.609C-55.8953 591.39 -60.6877 542.732 -51.35 495.788C-42.0124 448.845 -18.9641 405.724 14.8802 371.88C48.7245 338.036 91.8448 314.988 138.788 305.65C185.732 296.312 234.39 301.105 278.609 319.421C322.829 337.738 360.624 368.755 387.216 408.552C413.807 448.349 428 495.137 428 543L186 543L186 785Z" stroke="#6D7BBB" stroke-width="6" mask="url(#path-5-inside-2_78_7391)"/>
<mask id="path-6-inside-3_78_7391" fill="white">
<path d="M1270 439C1283.13 439 1296.14 441.587 1308.27 446.612C1320.4 451.638 1331.42 459.003 1340.71 468.289C1350 477.575 1357.36 488.599 1362.39 500.732C1367.41 512.864 1370 525.868 1370 539C1370 552.132 1367.41 565.136 1362.39 577.268C1357.36 589.401 1350 600.425 1340.71 609.711C1331.42 618.997 1320.4 626.363 1308.27 631.388C1296.14 636.413 1283.13 639 1270 639L1270 539L1270 439Z"/>
</mask>
<path d="M1270 439C1283.13 439 1296.14 441.587 1308.27 446.612C1320.4 451.638 1331.42 459.003 1340.71 468.289C1350 477.575 1357.36 488.599 1362.39 500.732C1367.41 512.864 1370 525.868 1370 539C1370 552.132 1367.41 565.136 1362.39 577.268C1357.36 589.401 1350 600.425 1340.71 609.711C1331.42 618.997 1320.4 626.363 1308.27 631.388C1296.14 636.413 1283.13 639 1270 639L1270 539L1270 439Z" stroke="#5F9D9A" stroke-width="10" mask="url(#path-6-inside-3_78_7391)"/>
<path d="M1246 264C1246 246.23 1253.06 229.189 1265.62 216.624C1278.19 204.059 1295.23 197 1313 197L1313 264L1246 264Z" fill="#ADB7E3"/>
<path d="M1313 182C1323.9 182 1334.69 184.147 1344.76 188.318C1354.83 192.489 1363.98 198.603 1371.69 206.31C1379.4 214.017 1385.51 223.167 1389.68 233.237C1393.85 243.307 1396 254.1 1396 265C1396 275.9 1393.85 286.693 1389.68 296.763C1385.51 306.833 1379.4 315.983 1371.69 323.69C1363.98 331.397 1354.83 337.511 1344.76 341.682C1334.69 345.853 1323.9 348 1313 348" stroke="#8D99CF" stroke-width="5"/>
<path d="M1406 539C1406 635.804 1367.54 728.643 1299.09 797.094C1230.64 865.545 1137.8 904 1041 904L1041 539H1406Z" fill="#7D8AC5"/>
<mask id="path-10-inside-4_78_7391" fill="white">
<path d="M1270 422C1285.5 422 1300.84 425.052 1315.16 430.982C1329.47 436.912 1342.48 445.604 1353.44 456.561C1364.4 467.519 1373.09 480.527 1379.02 494.843C1384.95 509.16 1388 524.504 1388 540C1388 555.496 1384.95 570.84 1379.02 585.157C1373.09 599.473 1364.4 612.481 1353.44 623.439C1342.48 634.396 1329.47 643.088 1315.16 649.018C1300.84 654.948 1285.5 658 1270 658L1270 540L1270 422Z"/>
</mask>
<path d="M1270 422C1285.5 422 1300.84 425.052 1315.16 430.982C1329.47 436.912 1342.48 445.604 1353.44 456.561C1364.4 467.519 1373.09 480.527 1379.02 494.843C1384.95 509.16 1388 524.504 1388 540C1388 555.496 1384.95 570.84 1379.02 585.157C1373.09 599.473 1364.4 612.481 1353.44 623.439C1342.48 634.396 1329.47 643.088 1315.16 649.018C1300.84 654.948 1285.5 658 1270 658L1270 540L1270 422Z" stroke="white" stroke-width="6" mask="url(#path-10-inside-4_78_7391)"/>
<path d="M1270 457C1280.9 457 1291.69 459.147 1301.76 463.318C1311.83 467.489 1320.98 473.603 1328.69 481.31C1336.4 489.017 1342.51 498.167 1346.68 508.237C1350.85 518.307 1353 529.1 1353 540C1353 550.9 1350.85 561.693 1346.68 571.763C1342.51 581.833 1336.4 590.983 1328.69 598.69C1320.98 606.397 1311.83 612.511 1301.76 616.682C1291.69 620.853 1280.9 623 1270 623L1270 540L1270 457Z" fill="#6D7BBB"/>
</g>
<defs>
<clipPath id="clip0_78_7391">
<rect width="1440" height="1000" rx="10" fill="white"/>
</clipPath>
</defs>
</svg>
