<svg width="64" height="64" viewBox="0 0 64 64" fill="none" xmlns="http://www.w3.org/2000/svg">
<path d="M31.3166 16.1461L22.8416 7.67114C17.9886 9.51801 13.7936 12.7649 10.7891 16.9999H30.9641C31.0629 16.9997 31.1595 16.9703 31.2416 16.9152C31.3237 16.8602 31.3876 16.7821 31.4254 16.6907C31.4631 16.5994 31.4729 16.4989 31.4535 16.4019C31.4342 16.305 31.3865 16.216 31.3166 16.1461V16.1461Z" fill="#2F9D96"/>
<path d="M20.9652 21H8.45394C6.15236 25.9058 5.44635 31.4096 6.43519 36.7375L21.3177 21.8538C21.3876 21.7839 21.4353 21.6949 21.4546 21.598C21.474 21.501 21.4642 21.4005 21.4265 21.3092C21.3888 21.2178 21.3248 21.1397 21.2427 21.0847C21.1606 21.0296 21.064 21.0002 20.9652 21Z" fill="#2F9D96"/>
<path d="M42.9999 20.965V8.445C38.0924 6.15056 32.5904 5.44778 27.2637 6.435L42.1462 21.3175C42.216 21.3874 42.305 21.4351 42.402 21.4545C42.4989 21.4738 42.5994 21.464 42.6907 21.4263C42.7821 21.3886 42.8602 21.3246 42.9153 21.2425C42.9703 21.1604 42.9998 21.0638 42.9999 20.965Z" fill="#2F9D96"/>
<path d="M57.5643 27.2625L42.6818 42.1462C42.6119 42.2161 42.5642 42.3051 42.5448 42.402C42.5255 42.4989 42.5353 42.5994 42.573 42.6908C42.6107 42.7821 42.6747 42.8603 42.7568 42.9153C42.8389 42.9703 42.9355 42.9998 43.0343 42.9999H55.5455C57.8471 38.0942 58.5531 32.5903 57.5643 27.2625V27.2625Z" fill="#2F9D96"/>
<path d="M47.8537 31.3174L56.3325 22.8399C54.4906 17.9797 51.2413 13.7791 47 10.7749V30.9649C47.0002 31.0637 47.0296 31.1603 47.0847 31.2424C47.1397 31.3245 47.2178 31.3885 47.3092 31.4262C47.4005 31.4639 47.501 31.4737 47.598 31.4544C47.6949 31.435 47.7839 31.3873 47.8537 31.3174V31.3174Z" fill="#2F9D96"/>
<path d="M27.7095 42.7212C27.8957 42.9 28.1439 42.9999 28.402 42.9999H35.8595C35.9922 42.9999 36.1235 42.9734 36.2458 42.9221C36.3681 42.8709 36.479 42.7957 36.572 42.7012L42.7195 36.4512C42.904 36.2639 43.0072 36.0115 43.007 35.7487L42.9995 28.1474C42.9995 28.0151 42.9732 27.8841 42.9221 27.762C42.871 27.6399 42.7962 27.5292 42.702 27.4362L36.452 21.2799C36.2644 21.0952 36.0116 20.9919 35.7483 20.9924L28.1433 20.9999C28.0109 21 27.8799 21.0263 27.7578 21.0774C27.6357 21.1285 27.525 21.2032 27.432 21.2974L21.2758 27.5474C21.091 27.735 20.9877 27.9879 20.9883 28.2512L20.9958 35.8487C20.9958 35.9831 21.0229 36.1162 21.0756 36.2399C21.1282 36.3636 21.2052 36.4754 21.302 36.5687L27.7095 42.7212Z" fill="#2F9D96"/>
<path d="M32.6818 47.8537L41.1568 56.3288C46.0098 54.4819 50.2047 51.235 53.2093 47H33.0343C32.9355 47.0002 32.8389 47.0296 32.7568 47.0847C32.6747 47.1397 32.6107 47.2178 32.573 47.3092C32.5353 47.4005 32.5255 47.501 32.5448 47.598C32.5642 47.6949 32.6119 47.7839 32.6818 47.8537V47.8537Z" fill="#2F9D96"/>
<path d="M21 43.035V55.555C25.9075 57.8495 31.4096 58.5523 36.7363 57.565L21.8538 42.6825C21.7839 42.6126 21.6949 42.5649 21.598 42.5456C21.501 42.5262 21.4005 42.536 21.3092 42.5737C21.2178 42.6115 21.1397 42.6754 21.0847 42.7575C21.0296 42.8396 21.0002 42.9362 21 43.035Z" fill="#2F9D96"/>
<path d="M16.1467 32.6825L7.66797 41.1613C9.51025 46.0209 12.7595 50.221 17.0005 53.225V33.035C17.0003 32.9362 16.9708 32.8396 16.9158 32.7575C16.8608 32.6754 16.7826 32.6115 16.6913 32.5737C16.5999 32.536 16.4994 32.5262 16.4025 32.5456C16.3056 32.5649 16.2166 32.6126 16.1467 32.6825V32.6825Z" fill="#2F9D96"/>
</svg>
