<svg width="64" height="64" viewBox="0 0 64 64" fill="none" xmlns="http://www.w3.org/2000/svg">
<path d="M8.26323 44.625C7.87717 44.6252 7.4993 44.5136 7.17524 44.3038C6.85118 44.094 6.59478 43.7948 6.43698 43.4425C4.52756 39.1781 3.71565 34.5037 4.07524 29.8451C4.43482 25.1866 5.95446 20.6921 8.49568 16.7713C11.0369 12.8504 14.5189 9.62779 18.6244 7.39711C22.7299 5.16642 27.3284 3.99858 32.0007 4C32.5312 4 33.0399 4.21071 33.4149 4.58579C33.79 4.96086 34.0007 5.46957 34.0007 6V32C34.0008 32.3862 33.8891 32.7642 33.679 33.0882C33.4689 33.4123 33.1695 33.6686 32.817 33.8263L9.07948 44.445C8.82319 44.5621 8.54498 44.6234 8.26323 44.625V44.625Z" fill="#2563EB"/>
<path d="M39.1987 8.52239C39.0537 8.49298 38.9039 8.49612 38.7603 8.53158C38.6166 8.56704 38.4826 8.63393 38.368 8.72744C38.2533 8.82095 38.1608 8.93874 38.0972 9.07231C38.0335 9.20589 38.0003 9.35193 37.9999 9.49989V31.9999C37.9989 33.1579 37.6634 34.2909 37.0336 35.2627C36.4037 36.2345 35.5066 37.0035 34.4499 37.4774L12.8912 47.1249C12.7576 47.1845 12.6387 47.2728 12.5429 47.3834C12.4471 47.4941 12.3767 47.6244 12.3368 47.7651C12.2968 47.9059 12.2883 48.0538 12.3117 48.1982C12.3352 48.3427 12.39 48.4802 12.4724 48.6011C14.1223 51.0277 16.1703 53.1581 18.5299 54.9024C23.0006 58.2281 28.428 60.0165 33.9999 59.9999C48.3362 59.9999 59.9999 48.3361 59.9999 33.9999C59.9999 21.4436 51.0524 10.9374 39.1987 8.52239Z" fill="#2563EB"/>
</svg>
